<svg xmlns="http://www.w3.org/2000/svg" viewBox="-25.25 35.5 602.5 639.0" width="602.5" height="639"><path d="M-25.25 35.5h602.5v639h-602.5v-639z" fill="none"/><path d="M66.25 319.5h491v20h-491zM52.25 104.5h21v22h-21z" stroke="#323232" stroke-width="2" fill="#80ff00"/><path d="M73.25 105h95v21h-95z" fill="none"/><text font-size="13" x="46.5" y="13.325" font-family="微软雅黑" text-anchor="middle" transform="translate(73.25 107.375)">HTML parsing</text><path d="M-5.25 55.5h160v40h-160z" fill="none"/><text font-size="17" x="79" y="17.425" font-family="微软雅黑" font-weight="bold" text-anchor="middle" transform="translate(-5.25 64.875)">Legend</text><path d="M52.25 144.5h21v22h-21z" stroke="#323232" stroke-width="2" fill="#a1a1a1"/><path d="M52.25 186.5h21v22h-21z" stroke="#323232" stroke-width="2" fill="#66f"/><path d="M73.25 187h105v21h-105z" fill="none"/><text font-size="13" x="51.5" y="13.325" font-family="微软雅黑" text-anchor="middle" transform="translate(73.25 189.375)">Script download</text><path d="M73.25 145h141v21h-141z" fill="none"/><text font-size="13" x="69.5" y="13.325" font-family="微软雅黑" text-anchor="middle" transform="translate(73.25 147.375)">HTML parsing paused</text><path d="M52.25 227.5h21v22h-21z" stroke="#323232" stroke-width="2" fill="#f66"/><path d="M73.25 228h105v21h-105z" fill="none"/><text font-size="13" x="51.5" y="13.325" font-family="微软雅黑" text-anchor="middle" transform="translate(73.25 230.375)">Script execution</text><path d="M2.75 285.5h160v40h-160z" fill="none"/><text font-size="17" x="79" y="17.425" font-family="微软雅黑" font-weight="bold" text-anchor="middle" transform="translate(2.75 294.875)">script</text><path d="M66.25 461.5h491v20h-491z" stroke="#323232" stroke-width="2" fill="#80ff00"/><path d="M27.25 424.5h160v40h-160z" fill="none"/><text font-size="17" x="79" y="17.425" font-family="微软雅黑" font-weight="bold" text-anchor="middle" transform="translate(27.25 433.875)">script async</text><path d="M66.25 590.5H505v20H66.25z" stroke="#323232" stroke-width="2" fill="#80ff00"/><path d="M25.125 550.5h160v40h-160z" fill="none"/><text font-size="17" x="79" y="17.425" font-family="微软雅黑" font-weight="bold" text-anchor="middle" transform="translate(25.125 559.875)">script defer</text><g><path d="M205.25 319.5H380v20H205.25z" stroke="#323232" stroke-width="2" fill="#a1a1a1"/></g><g><path d="M319 461.5h61v20h-61z" stroke="#323232" stroke-width="2" fill="#a1a1a1"/></g><g><path d="M205.25 481.5H319v20H205.25z" stroke="#323232" stroke-width="2" fill="#66f"/></g><g><path d="M205.25 339.5H326v20H205.25z" stroke="#323232" stroke-width="2" fill="#66f"/></g><g><path d="M205.25 610.5H319v20H205.25z" stroke="#323232" stroke-width="2" fill="#66f"/></g><g><path d="M326 359.5h54v20h-54z" stroke="#323232" stroke-width="2" fill="#f66"/></g><g><path d="M319 517.5h61v20h-61z" stroke="#323232" stroke-width="2" fill="#f66"/></g><g><path d="M505 634.5h52.25v20H505z" stroke="#323232" stroke-width="2" fill="#f66"/></g></svg>