<svg xmlns="http://www.w3.org/2000/svg" viewBox="110.0 0 884.0 528.0" width="884" height="528"><path d="M110-45h884v528H110V-45z" fill="none"/><path d="M327 51h384v412H327z" stroke="#323232" stroke-width="2" fill="#fff"/><path d="M259 122q0-4 4-4h523q4 0 4 4v209q0 4-4 4H263q-4 0-4-4z" stroke="#dadada" stroke-width="2" fill="#fff"/><path d="M259 148v-26q0-4 4-4h523q4 0 4 4v26z" stroke="#dadada" stroke-width="2" fill="#dadada"/><path d="M269 133c0-5 8-5 8 0s-8 5-8 0zM282 133c0-5 8-5 8 0s-8 5-8 0zM295 133c0-5 8-5 8 0s-8 5-8 0zM314 127q0-4 4-4h463q4 0 4 4v12q0 4-4 4H318q-4 0-4-4z" stroke-width="0" fill="#fff"/><path d="M259 118h531v217H259z" stroke-width="0" fill="none"/><text font-size="13" x="229.5" y="13.325" font-family="微软雅黑" text-anchor="middle" transform="translate(319 124.875)">https://lz5z.com</text><path d="M350 367h95v47h-95z" stroke="#8a8a8a" stroke-width="2" fill="#6f6"/><text font-size="13" x="36.5" y="13.325" font-family="微软雅黑" text-anchor="middle" transform="translate(360 382.375)">美丽的图片</text><g fill="none"><path d="M324 50H200" stroke="#888"/><path d="M324 39.5v21H200v-21z" stroke-width="0"/></g><g fill="none"><path d="M350 366H200" stroke="#888"/><path d="M350 355.5v21H200v-21z" stroke-width="0"/></g><path d="M209.5 51l10 10h-6.6v296h6.6l-10 10-10-10h6.6V61h-6.6l10-10z" stroke="#323232" stroke-width="2" fill="#cc0"/><g><path d="M130 207h83v27h-83z" stroke-width="0" fill="none"/><text font-size="13" x="40.5" y="13.325" font-family="微软雅黑" font-weight="bold" text-anchor="middle" transform="translate(130 212.375)">offsetTop</text></g><g><path d="M821 152l10 10h-6.6v163h6.6l-10 10-10-10h6.6V162H811l10-10z" stroke="#323232" stroke-width="2" fill="#4d9900"/></g><g fill="none"><path d="M852.5 149.5h-63" stroke="#888"/><path d="M852.5 139v21h-63v-21z" stroke-width="0"/></g><g fill="none"><path d="M852.5 335.5h-63" stroke="#888"/><path d="M852.5 325v21h-63v-21z" stroke-width="0"/></g><g><path d="M833.5 229H959v27H833.5z" stroke-width="0" fill="none"/><text font-size="13" x="61.75" y="13.325" font-family="微软雅黑" font-weight="bold" text-anchor="middle" transform="translate(833.5 234.375)">window.innerHeight</text></g><g fill="none"><path d="M858 50H708" stroke="#888"/><path d="M858 39.5v21H708v-21z" stroke-width="0"/></g><g><path d="M803.5 51l10 10h-6.6v76h6.6l-10 10-10-10h6.6V61h-6.6l10-10z" stroke="#323232" stroke-width="2" fill="red"/></g><g><path d="M810.5 85.5H974v27H810.5z" stroke-width="0" fill="none"/><text font-size="13" x="80.75" y="13.325" font-family="微软雅黑" font-weight="bold" text-anchor="middle" transform="translate(810.5 90.875)">document.body.scrollTop</text></g></svg>