<svg xmlns="http://www.w3.org/2000/svg" viewBox="194.0 73.0 642.0 689.0" width="642" height="689"><defs><marker id="a" markerUnits="userSpaceOnUse" orient="auto" markerWidth="16.236" markerHeight="10.551" viewBox="-1.0 -1.3763819204711736 16.23606797749979 10.550836550532098" refX="-1" refY="3.899"><path d="M12 3.899l-12 3.9V0z" stroke="#6c0" stroke-width="2" fill="#6c0"/></marker><marker id="b" markerUnits="userSpaceOnUse" orient="auto" markerWidth="16.236" markerHeight="10.551" viewBox="-1.0 -1.3763819204711736 16.23606797749979 10.550836550532098" refX="-1" refY="3.899"><path d="M12 3.899l-12 3.9V0z" stroke="#099" stroke-width="2" fill="#099"/></marker><marker id="c" markerUnits="userSpaceOnUse" orient="auto" markerWidth="16.236" markerHeight="10.551" viewBox="-1.0 -1.3763819204711736 16.23606797749979 10.550836550532098" refX="-1" refY="3.899"><path d="M12 3.899l-12 3.9V0z" stroke="#009" stroke-width="2" fill="#009"/></marker><marker id="d" markerUnits="userSpaceOnUse" orient="auto" markerWidth="16.236" markerHeight="10.551" viewBox="-1.0 -1.3763819204711736 16.23606797749979 10.550836550532098" refX="-1" refY="3.899"><path d="M12 3.899l-12 3.9V0z" stroke="#c00" stroke-width="2" fill="#c00"/></marker><marker id="e" markerUnits="userSpaceOnUse" orient="auto" markerWidth="16.236" markerHeight="10.551" viewBox="-1.0 -1.3763819204711736 16.23606797749979 10.550836550532098" refX="-1" refY="3.899"><path d="M12 3.899l-12 3.9V0z" stroke="#c00" stroke-width="2" fill="#c00"/></marker><marker id="f" markerUnits="userSpaceOnUse" orient="auto" markerWidth="16.236" markerHeight="10.551" viewBox="-1.0 -1.3763819204711736 16.23606797749979 10.550836550532098" refX="-1" refY="3.899"><path d="M12 3.899l-12 3.9V0z" stroke="#6c0" stroke-width="2" fill="#6c0"/></marker><marker id="g" markerUnits="userSpaceOnUse" orient="auto" markerWidth="16.236" markerHeight="10.551" viewBox="-1.0 -1.3763819204711736 16.23606797749979 10.550836550532098" refX="-1" refY="3.899"><path d="M12 3.899l-12 3.9V0z" stroke="#099" stroke-width="2" fill="#099"/></marker><marker id="h" markerUnits="userSpaceOnUse" orient="auto" markerWidth="16.236" markerHeight="10.551" viewBox="-1.0 -1.3763819204711736 16.23606797749979 10.550836550532098" refX="-1" refY="3.899"><path d="M12 3.899l-12 3.9V0z" stroke="#009" stroke-width="2" fill="#009"/></marker></defs><path d="M194 73h642v689H194V73z" fill="none"/><path d="M320.571 478q0-4 4-4h486q4 0 4 4v260q0 4-4 4h-486q-4 0-4-4z" stroke="#dadada" stroke-width="2" fill="#fff"/><path d="M320.571 504v-26q0-4 4-4h486q4 0 4 4v26z" stroke="#dadada" stroke-width="2" fill="#dadada"/><path d="M330.571 489c0-5 8-5 8 0s-8 5-8 0zM343.571 489c0-5 8-5 8 0s-8 5-8 0zM356.571 489c0-5 8-5 8 0s-8 5-8 0zM375.571 483q0-4 4-4h426q4 0 4 4v12q0 4-4 4h-426q-4 0-4-4z" stroke-width="0" fill="#fff"/><path d="M320.571 474h494v268h-494z" stroke-width="0" fill="none"/><text font-size="13" x="211" y="13.325" font-family="微软雅黑" text-anchor="middle" transform="translate(380.571 480.875)">https://lz5z.com</text><path d="M322 97q0-4 4-4h486q4 0 4 4v260q0 4-4 4H326q-4 0-4-4z" stroke="#dadada" stroke-width="2" fill="#fff"/><path d="M322 123V97q0-4 4-4h486q4 0 4 4v26z" stroke="#dadada" stroke-width="2" fill="#dadada"/><path d="M332 108c0-5 8-5 8 0s-8 5-8 0zM345 108c0-5 8-5 8 0s-8 5-8 0zM358 108c0-5 8-5 8 0s-8 5-8 0zM377 102q0-4 4-4h426q4 0 4 4v12q0 4-4 4H381q-4 0-4-4z" stroke-width="0" fill="#fff"/><path d="M322 93h494v268H322z" stroke-width="0" fill="none"/><text font-size="13" x="211" y="13.325" font-family="微软雅黑" text-anchor="middle" transform="translate(382 99.875)">https://lz5z.com</text><path d="M411 187h143v101H411z" stroke="#8a8a8a" stroke-width="2" fill="#ebebeb"/><path d="M459 188V141.236" stroke="#6c0" stroke-width="2" fill="none" marker-end="url(#a)"/><path d="M525 287V142.236" stroke="#099" stroke-width="2" fill="none" marker-end="url(#b)"/><path d="M554 261H339.236" stroke="#009" stroke-width="2" fill="none" marker-end="url(#c)"/><g><path d="M411 225h-70.764" stroke="#c00" stroke-width="2" fill="none" marker-end="url(#d)"/></g><g><path d="M288 193h160v40H288z" stroke-width="0" fill="none"/><text font-size="13" x="79" y="13.325" font-family="微软雅黑" font-weight="bold" text-anchor="middle" transform="translate(288 204.875)">left</text></g><g><path d="M362 139h160v40H362z" stroke-width="0" fill="none"/><text font-size="13" x="79" y="13.325" font-family="微软雅黑" font-weight="bold" text-anchor="middle" transform="translate(362 150.875)">top</text></g><g><path d="M463 153h160v40H463z" stroke-width="0" fill="none"/><text font-size="13" x="79" y="13.325" font-family="微软雅黑" font-weight="bold" text-anchor="middle" transform="translate(463 164.875)">bottom</text></g><g><path d="M288 253h160v40H288z" stroke-width="0" fill="none"/><text font-size="13" x="79" y="13.325" font-family="微软雅黑" font-weight="bold" text-anchor="middle" transform="translate(288 264.875)">right</text></g><g opacity=".7"><path d="M264 432h190v133.788H264z" stroke="#8a8a8a" stroke-width="2" fill="#ebebeb"/></g><g><path d="M320 514H283.736" stroke="#c00" stroke-width="2" fill="none" marker-end="url(#e)"/></g><g><path d="M214 481h160v40H214z" stroke-width="0" fill="none"/><text font-size="13" x="79" y="13.325" font-family="微软雅黑" font-weight="bold" text-anchor="middle" transform="translate(214 492.875)">left</text></g><g><path d="M336.5 503V450.236" stroke="#6c0" stroke-width="2" fill="none" marker-end="url(#f)"/></g><g><path d="M242 444h160v40H242z" stroke-width="0" fill="none"/><text font-size="13" x="79" y="13.325" font-family="微软雅黑" font-weight="bold" text-anchor="middle" transform="translate(242 455.875)">top</text></g><g><path d="M350 502v48.552" stroke="#099" stroke-width="2" fill="none" marker-end="url(#g)"/></g><g><path d="M257.5 499h160v40h-160z" stroke-width="0" fill="none"/><text font-size="13" x="79" y="13.325" font-family="微软雅黑" font-weight="bold" text-anchor="middle" transform="translate(257.5 510.875)">bottom</text></g><g><path d="M321 545H438.764" stroke="#009" stroke-width="2" fill="none" marker-end="url(#h)"/></g><g><path d="M350.571 535.788H432V577h-81.429z" stroke-width="0" fill="none"/><text font-size="13" x="39.714" y="13.325" font-family="微软雅黑" font-weight="bold" text-anchor="middle" transform="translate(350.571 548.269)">right</text></g></svg>